<svg width="212" height="76" viewBox="0 0 212 76" fill="none" xmlns="http://www.w3.org/2000/svg">
<path d="M76.0413 38C76.0413 58.9868 59.0188 76 38.0206 76C17.0224 76 0 58.9868 0 38C0 17.0132 17.0224 0 38.0206 0C59.0188 0 76.0413 17.0132 76.0413 38Z" fill="#A30000"/>
<path d="M50.6647 22.9274L50.3994 25.3135H59.2414C60.8684 25.3135 61.393 25.8437 61.4519 26.1088L67.3761 37.2437H67.8182C68.3133 37.2437 68.6729 37.715 68.7908 37.9507C68.6729 40.7197 68.331 46.9646 67.9066 49.7925C67.4822 52.6204 64.134 53.0328 62.513 52.8856C62.7782 53.4158 60.8153 58.4176 56.1467 58.2762C51.4782 58.1348 49.8394 54.6235 49.6037 52.8856C48.2597 53.1683 47.0395 52.2964 46.5974 51.8251C46.3144 52.3907 44.8879 52.7677 44.21 52.8856H29.886C29.4734 54.4762 27.6047 57.7637 23.4313 58.1879C19.2579 58.6121 17.3303 54.8297 16.8882 52.8856H15.0314C14.8546 52.8561 14.2356 52.6558 13.1746 52.0902C12.1136 51.5246 11.7304 49.7336 11.6714 48.9088L12.202 43.253H10.9641C10.463 43.1352 9.46095 42.6521 9.46095 41.6623C9.46095 40.6725 10.463 40.3073 10.9641 40.2483H30.6818C31.2418 40.1011 32.3617 39.453 32.3617 38.039C32.3617 36.6251 31.2418 36.0359 30.6818 35.9181H15.0314C14.5893 35.8003 13.7051 35.3349 13.7051 34.4158C13.7051 33.4967 14.5893 33.0313 15.0314 32.9135H31.2123C31.7723 32.9135 32.91 32.5069 32.9807 30.8809C33.0514 29.2549 31.8312 28.7305 31.2123 28.6716H8.72211C8.23155 28.5538 7.25045 28.0883 7.25045 27.1693C7.25045 26.2502 8.23155 25.7848 8.72211 25.6669H32.0081C32.5386 25.5786 33.6173 25.066 33.688 23.7228C33.7588 22.3795 32.5975 21.808 32.0081 21.6902H14.2356L14.5009 19.5693C14.6424 18.4381 15.444 17.9786 15.8272 17.8902C25.1113 17.8607 44.4222 17.8195 47.3932 17.8902C50.3641 17.9609 50.8121 21.2778 50.6647 22.9274Z" fill="white"/>
<path d="M92.6209 51.1683H83.8638V7.43731H114.498V16.1896H92.6209V24.9419H105.741V33.6942H92.6209V51.1683Z" fill="#A30000"/>
<path d="M154.073 29.3028C154.073 31.3155 153.808 33.2571 153.279 35.1275C152.771 36.9776 152.039 38.7159 151.083 40.3423C150.127 41.9484 148.987 43.4224 147.665 44.7642C146.343 46.0857 144.868 47.2242 143.241 48.1797C141.614 49.1353 139.864 49.8773 137.993 50.4059C136.142 50.9142 134.209 51.1683 132.195 51.1683H119.014V7.43731H132.195C134.209 7.43731 136.142 7.7016 137.993 8.2302C139.864 8.73846 141.614 9.47036 143.241 10.4259C144.868 11.3814 146.343 12.5301 147.665 13.8719C148.987 15.1934 150.127 16.6674 151.083 18.2938C152.039 19.8999 152.771 21.6382 153.279 23.5086C153.808 25.3587 154.073 27.2901 154.073 29.3028ZM145.316 29.3028C145.316 27.4934 144.97 25.7958 144.278 24.21C143.607 22.6242 142.671 21.2417 141.471 20.0626C140.291 18.8631 138.898 17.9177 137.291 17.2265C135.704 16.5352 134.006 16.1896 132.195 16.1896H127.832V42.416H132.195C134.006 42.416 135.704 42.0806 137.291 41.4097C138.898 40.7184 140.291 39.7832 141.471 38.604C142.671 37.4045 143.607 36.0119 144.278 34.4261C144.97 32.82 145.316 31.1122 145.316 29.3028Z" fill="#A30000"/>
<path d="M157.338 20.5505C157.338 18.7411 157.683 17.0435 158.375 15.4577C159.067 13.8719 160.002 12.4894 161.182 11.3103C162.382 10.1108 163.776 9.1654 165.362 8.47416C166.949 7.78293 168.648 7.43731 170.458 7.43731H190.535V16.1896H170.458C169.848 16.1896 169.278 16.3014 168.749 16.5251C168.22 16.7487 167.753 17.0638 167.346 17.4704C166.959 17.8567 166.654 18.3141 166.43 18.8427C166.207 19.3713 166.095 19.9406 166.095 20.5505C166.095 21.1604 166.207 21.7398 166.43 22.2888C166.654 22.8174 166.959 23.285 167.346 23.6916C167.753 24.0779 168.22 24.3828 168.749 24.6065C169.278 24.8301 169.848 24.9419 170.458 24.9419H179.215C181.025 24.9419 182.724 25.2875 184.311 25.9788C185.918 26.6497 187.311 27.5849 188.491 28.7844C189.691 29.9636 190.627 31.3562 191.298 32.9623C191.99 34.5481 192.335 36.2457 192.335 38.0551C192.335 39.8645 191.99 41.5621 191.298 43.1479C190.627 44.7337 189.691 46.1263 188.491 47.3258C187.311 48.505 185.918 49.4402 184.311 50.1315C182.724 50.8227 181.025 51.1683 179.215 51.1683H159.779V42.416H179.215C179.825 42.416 180.395 42.3042 180.924 42.0806C181.453 41.8569 181.91 41.552 182.297 41.1657C182.704 40.7591 183.019 40.2915 183.243 39.7629C183.466 39.2343 183.578 38.665 183.578 38.0551C183.578 37.4452 183.466 36.8759 183.243 36.3473C183.019 35.8188 182.704 35.3613 182.297 34.975C181.91 34.5684 181.453 34.2533 180.924 34.0297C180.395 33.806 179.825 33.6942 179.215 33.6942H170.458C168.648 33.6942 166.949 33.3486 165.362 32.6574C163.776 31.9661 162.382 31.0309 161.182 29.8517C160.002 28.6522 159.067 27.2596 158.375 25.6738C157.683 24.0677 157.338 22.3599 157.338 20.5505Z" fill="#A30000"/>
<path d="M84.0906 68.4753H82.1915V58.9914H88.8351V60.8895H84.0906V62.7876H86.936V64.6857H84.0906V68.4753Z" fill="#A30000"/>
<path d="M95.6508 68.4753H95.2141L94.5126 67.5031C94.3406 67.6574 94.1575 67.8029 93.9634 67.9396C93.7737 68.0718 93.573 68.1887 93.3613 68.2901C93.1495 68.3871 92.9311 68.4642 92.7062 68.5215C92.4856 68.5789 92.2606 68.6075 92.0312 68.6075C91.5327 68.6075 91.0629 68.5238 90.6218 68.3562C90.185 68.1887 89.8012 67.9462 89.4704 67.6287C89.1439 67.3069 88.8859 66.9145 88.6962 66.4515C88.5065 65.9886 88.4116 65.4617 88.4116 64.8709C88.4116 64.3197 88.5065 63.8149 88.6962 63.3564C88.8859 62.8934 89.1439 62.4966 89.4704 62.1659C89.8012 61.8352 90.185 61.5795 90.6218 61.3987C91.0629 61.2136 91.5327 61.121 92.0312 61.121C92.2606 61.121 92.4878 61.1496 92.7128 61.207C92.9378 61.2643 93.1561 61.3436 93.3679 61.445C93.5796 61.5465 93.7803 61.6655 93.97 61.8022C94.1641 61.9389 94.345 62.0866 94.5126 62.2453L95.2141 61.4054H95.6508V68.4753ZM93.8311 64.8709C93.8311 64.624 93.7825 64.3859 93.6855 64.1566C93.5929 63.9229 93.4649 63.7179 93.3017 63.5415C93.1385 63.3608 92.9466 63.2175 92.726 63.1117C92.5099 63.0014 92.2783 62.9463 92.0312 62.9463C91.7842 62.9463 91.5504 62.9882 91.3298 63.072C91.1136 63.1558 90.9239 63.2792 90.7607 63.4423C90.6019 63.6055 90.4762 63.8083 90.3835 64.0508C90.2909 64.2889 90.2446 64.5622 90.2446 64.8709C90.2446 65.1795 90.2909 65.4551 90.3835 65.6976C90.4762 65.9356 90.6019 66.1363 90.7607 66.2994C90.9239 66.4625 91.1136 66.586 91.3298 66.6697C91.5504 66.7535 91.7842 66.7954 92.0312 66.7954C92.2783 66.7954 92.5099 66.7425 92.726 66.6367C92.9466 66.5265 93.1385 66.3832 93.3017 66.2068C93.4649 66.026 93.5929 65.821 93.6855 65.5917C93.7825 65.3581 93.8311 65.1178 93.8311 64.8709Z" fill="#A30000"/>
<path d="M100.925 68.4753H96.7956V66.6764H100.925C101.048 66.6764 101.154 66.6323 101.242 66.5441C101.331 66.4559 101.375 66.3501 101.375 66.2266C101.375 66.0988 101.331 66.015 101.242 65.9753C101.154 65.9356 101.048 65.9158 100.925 65.9158H99.0454C98.7322 65.9158 98.4388 65.8563 98.1653 65.7372C97.8918 65.6182 97.6536 65.4573 97.4507 65.2544C97.2477 65.0472 97.0867 64.8069 96.9676 64.5336C96.8529 64.2602 96.7956 63.967 96.7956 63.654C96.7956 63.3409 96.8529 63.0477 96.9676 62.7744C97.0867 62.501 97.2477 62.2629 97.4507 62.0601C97.6536 61.8573 97.8918 61.6986 98.1653 61.5839C98.4388 61.4649 98.7322 61.4054 99.0454 61.4054H102.705V63.2042H99.0454C98.9219 63.2042 98.816 63.2483 98.7278 63.3365C98.6395 63.4247 98.5954 63.5305 98.5954 63.654C98.5954 63.7818 98.6395 63.8921 98.7278 63.9846C98.816 64.0728 98.9219 64.1169 99.0454 64.1169H100.925C101.233 64.1169 101.525 64.1698 101.798 64.2756C102.072 64.3771 102.31 64.5203 102.513 64.7055C102.716 64.8907 102.877 65.1134 102.996 65.3735C103.115 65.6336 103.174 65.918 103.174 66.2266C103.174 66.5397 103.115 66.8329 102.996 67.1062C102.877 67.3752 102.716 67.6133 102.513 67.8205C102.31 68.0233 102.072 68.1842 101.798 68.3033C101.525 68.4179 101.233 68.4753 100.925 68.4753Z" fill="#A30000"/>
<path d="M107.694 68.4753C107.257 68.4753 106.847 68.3937 106.463 68.2305C106.079 68.063 105.742 67.8359 105.451 67.5494C105.164 67.2584 104.937 66.9211 104.769 66.5375C104.606 66.1539 104.524 65.7439 104.524 65.3074V63.2042H103.644V61.4054H104.524V58.5748H106.324V61.4054H109.064V63.2042H106.324V65.3074C106.324 65.4969 106.36 65.6755 106.43 65.8431C106.501 66.0062 106.598 66.1495 106.721 66.2729C106.845 66.3964 106.99 66.4956 107.158 66.5705C107.326 66.6411 107.504 66.6764 107.694 66.6764H109.064V68.4753H107.694Z" fill="#A30000"/>
<path d="M121.676 63.7333C121.676 64.1698 121.619 64.5909 121.504 64.9965C121.394 65.3977 121.235 65.7747 121.028 66.1274C120.82 66.4758 120.573 66.7954 120.286 67.0864C120 67.373 119.68 67.6199 119.327 67.8271C118.974 68.0343 118.595 68.1953 118.189 68.3099C117.787 68.4201 117.368 68.4753 116.932 68.4753H114.073V58.9914H116.932C117.368 58.9914 117.787 59.0487 118.189 59.1634C118.595 59.2736 118.974 59.4323 119.327 59.6395C119.68 59.8468 120 60.0959 120.286 60.3869C120.573 60.6735 120.82 60.9931 121.028 61.3458C121.235 61.6942 121.394 62.0711 121.504 62.4768C121.619 62.878 121.676 63.2968 121.676 63.7333ZM119.777 63.7333C119.777 63.3409 119.702 62.9728 119.552 62.6289C119.406 62.285 119.203 61.9851 118.943 61.7294C118.687 61.4693 118.385 61.2643 118.037 61.1144C117.692 60.9645 117.324 60.8895 116.932 60.8895H115.985V66.5772H116.932C117.324 66.5772 117.692 66.5044 118.037 66.3589C118.385 66.209 118.687 66.0062 118.943 65.7505C119.203 65.4903 119.406 65.1883 119.552 64.8444C119.702 64.4961 119.777 64.1257 119.777 63.7333Z" fill="#A30000"/>
<path d="M125.567 66.7425C125.637 66.7645 125.708 66.78 125.779 66.7888C125.849 66.7932 125.92 66.7954 125.99 66.7954C126.167 66.7954 126.337 66.7712 126.5 66.7227C126.663 66.6742 126.815 66.6058 126.956 66.5176C127.102 66.425 127.23 66.3148 127.34 66.187C127.455 66.0547 127.548 65.9092 127.618 65.7505L128.942 67.0798C128.774 67.3179 128.58 67.5317 128.359 67.7213C128.143 67.9109 127.907 68.0718 127.651 68.2041C127.4 68.3364 127.133 68.4356 126.851 68.5017C126.573 68.5723 126.286 68.6075 125.99 68.6075C125.492 68.6075 125.022 68.5149 124.581 68.3298C124.144 68.1446 123.76 67.8866 123.43 67.556C123.103 67.2253 122.845 66.8329 122.655 66.3788C122.466 65.9202 122.371 65.4176 122.371 64.8709C122.371 64.3109 122.466 63.7995 122.655 63.3365C122.845 62.8736 123.103 62.479 123.43 62.1527C123.76 61.8264 124.144 61.5729 124.581 61.3921C125.022 61.2114 125.492 61.121 125.99 61.121C126.286 61.121 126.575 61.1562 126.857 61.2268C127.14 61.2973 127.406 61.3987 127.658 61.531C127.914 61.6633 128.152 61.8264 128.373 62.0204C128.593 62.21 128.787 62.4238 128.955 62.6619L125.567 66.7425ZM126.493 63.0191C126.409 62.9882 126.326 62.9684 126.242 62.9595C126.162 62.9507 126.079 62.9463 125.99 62.9463C125.743 62.9463 125.51 62.9926 125.289 63.0852C125.073 63.1734 124.883 63.3012 124.72 63.4688C124.561 63.6363 124.435 63.8391 124.343 64.0772C124.25 64.3109 124.204 64.5755 124.204 64.8709C124.204 64.937 124.206 65.012 124.21 65.0957C124.219 65.1795 124.23 65.2655 124.243 65.3537C124.261 65.4374 124.281 65.519 124.303 65.5984C124.325 65.6777 124.354 65.7483 124.389 65.81L126.493 63.0191Z" fill="#A30000"/>
<path d="M131.688 68.4753H129.868V58.5748H131.688V68.4753Z" fill="#A30000"/>
<path d="M135.201 59.4676C135.201 59.6351 135.168 59.7917 135.102 59.9372C135.04 60.0827 134.954 60.2105 134.844 60.3207C134.734 60.4266 134.604 60.5125 134.454 60.5787C134.308 60.6404 134.152 60.6713 133.984 60.6713C133.816 60.6713 133.657 60.6404 133.507 60.5787C133.362 60.5125 133.234 60.4266 133.124 60.3207C133.018 60.2105 132.932 60.0827 132.866 59.9372C132.804 59.7917 132.773 59.6351 132.773 59.4676C132.773 59.3045 132.804 59.1501 132.866 59.0046C132.932 58.8547 133.018 58.7269 133.124 58.6211C133.234 58.5108 133.362 58.4249 133.507 58.3631C133.657 58.297 133.816 58.2639 133.984 58.2639C134.152 58.2639 134.308 58.297 134.454 58.3631C134.604 58.4249 134.734 58.5108 134.844 58.6211C134.954 58.7269 135.04 58.8547 135.102 59.0046C135.168 59.1501 135.201 59.3045 135.201 59.4676ZM134.89 68.4753H133.071V61.3921H134.89V68.4753Z" fill="#A30000"/>
<path d="M138.285 68.4753L135.585 61.3921H137.643L139.192 65.81L140.733 61.3921H142.798L140.098 68.4753H138.285Z" fill="#A30000"/>
<path d="M146.093 66.7425C146.164 66.7645 146.234 66.78 146.305 66.7888C146.376 66.7932 146.446 66.7954 146.517 66.7954C146.693 66.7954 146.863 66.7712 147.026 66.7227C147.189 66.6742 147.342 66.6058 147.483 66.5176C147.628 66.425 147.756 66.3148 147.867 66.187C147.981 66.0547 148.074 65.9092 148.145 65.7505L149.468 67.0798C149.3 67.3179 149.106 67.5317 148.886 67.7213C148.67 67.9109 148.434 68.0718 148.178 68.2041C147.926 68.3364 147.659 68.4356 147.377 68.5017C147.099 68.5723 146.812 68.6075 146.517 68.6075C146.018 68.6075 145.548 68.5149 145.107 68.3298C144.671 68.1446 144.287 67.8866 143.956 67.556C143.629 67.2253 143.371 66.8329 143.182 66.3788C142.992 65.9202 142.897 65.4176 142.897 64.8709C142.897 64.3109 142.992 63.7995 143.182 63.3365C143.371 62.8736 143.629 62.479 143.956 62.1527C144.287 61.8264 144.671 61.5729 145.107 61.3921C145.548 61.2114 146.018 61.121 146.517 61.121C146.812 61.121 147.101 61.1562 147.384 61.2268C147.666 61.2973 147.933 61.3987 148.184 61.531C148.44 61.6633 148.678 61.8264 148.899 62.0204C149.12 62.21 149.314 62.4238 149.481 62.6619L146.093 66.7425ZM147.02 63.0191C146.936 62.9882 146.852 62.9684 146.768 62.9595C146.689 62.9507 146.605 62.9463 146.517 62.9463C146.27 62.9463 146.036 62.9926 145.815 63.0852C145.599 63.1734 145.41 63.3012 145.246 63.4688C145.087 63.6363 144.962 63.8391 144.869 64.0772C144.776 64.3109 144.73 64.5755 144.73 64.8709C144.73 64.937 144.732 65.012 144.737 65.0957C144.746 65.1795 144.757 65.2655 144.77 65.3537C144.787 65.4374 144.807 65.519 144.829 65.5984C144.851 65.6777 144.88 65.7483 144.915 65.81L147.02 63.0191Z" fill="#A30000"/>
<path d="M152.201 68.4753H150.394V61.3921H150.831L151.427 62.2321C151.718 61.9675 152.049 61.7647 152.419 61.6236C152.79 61.4781 153.174 61.4054 153.571 61.4054H155.165V63.2042H153.571C153.381 63.2042 153.202 63.2395 153.035 63.3101C152.867 63.3806 152.721 63.4776 152.598 63.6011C152.474 63.7245 152.377 63.87 152.307 64.0376C152.236 64.2051 152.201 64.3837 152.201 64.5732V68.4753Z" fill="#A30000"/>
<path d="M157.66 71.1736V69.3549L158.666 69.3681C158.842 69.3681 159.012 69.3394 159.175 69.2821C159.339 69.2248 159.489 69.1454 159.625 69.044C159.766 68.9426 159.89 68.8214 159.996 68.6803C160.102 68.5436 160.188 68.3937 160.254 68.2305C160.055 68.3143 159.853 68.3981 159.645 68.4819C159.442 68.5656 159.237 68.6075 159.03 68.6075C158.593 68.6075 158.183 68.5304 157.799 68.376C157.415 68.2217 157.078 68.0035 156.787 67.7213C156.5 67.4347 156.273 67.0886 156.105 66.683C155.942 66.2729 155.86 65.8144 155.86 65.3074V61.3921H157.66V65.3074C157.66 65.5587 157.695 65.7791 157.766 65.9687C157.841 66.1539 157.94 66.3104 158.064 66.4383C158.187 66.5617 158.331 66.6543 158.494 66.716C158.661 66.7778 158.84 66.8086 159.03 66.8086C159.215 66.8086 159.389 66.7667 159.553 66.683C159.72 66.5948 159.866 66.4802 159.989 66.3391C160.113 66.198 160.21 66.0393 160.28 65.8629C160.351 65.6821 160.386 65.4969 160.386 65.3074V61.3921H162.206V67.5824C162.202 68.0806 162.105 68.548 161.915 68.9845C161.725 69.421 161.465 69.8024 161.134 70.1286C160.808 70.4549 160.426 70.7128 159.989 70.9024C159.553 71.092 159.085 71.1868 158.586 71.1868L157.66 71.1736Z" fill="#A30000"/>
<path d="M167.023 61.8352C167.023 61.4428 167.098 61.0747 167.248 60.7308C167.398 60.3869 167.601 60.0871 167.857 59.8313C168.117 59.5712 168.42 59.3662 168.764 59.2163C169.108 59.0664 169.476 58.9914 169.869 58.9914H174.223V60.8895H169.869C169.736 60.8895 169.613 60.9138 169.498 60.9623C169.383 61.0108 169.282 61.0791 169.194 61.1673C169.11 61.251 169.044 61.3503 168.995 61.4649C168.947 61.5795 168.922 61.703 168.922 61.8352C168.922 61.9675 168.947 62.0932 168.995 62.2122C169.044 62.3269 169.11 62.4283 169.194 62.5164C169.282 62.6002 169.383 62.6663 169.498 62.7148C169.613 62.7633 169.736 62.7876 169.869 62.7876H171.768C172.16 62.7876 172.529 62.8625 172.873 63.0125C173.221 63.158 173.524 63.3608 173.779 63.6209C174.04 63.8766 174.243 64.1786 174.388 64.527C174.538 64.8709 174.613 65.239 174.613 65.6314C174.613 66.0238 174.538 66.392 174.388 66.7359C174.243 67.0798 174.04 67.3818 173.779 67.6419C173.524 67.8977 173.221 68.1005 172.873 68.2504C172.529 68.4003 172.16 68.4753 171.768 68.4753H167.553V66.5772H171.768C171.9 66.5772 172.024 66.5529 172.138 66.5044C172.253 66.4559 172.352 66.3898 172.436 66.306C172.524 66.2178 172.593 66.1164 172.641 66.0018C172.69 65.8871 172.714 65.7637 172.714 65.6314C172.714 65.4992 172.69 65.3757 172.641 65.2611C172.593 65.1464 172.524 65.0472 172.436 64.9635C172.352 64.8753 172.253 64.8069 172.138 64.7584C172.024 64.7099 171.9 64.6857 171.768 64.6857H169.869C169.476 64.6857 169.108 64.6107 168.764 64.4608C168.42 64.3109 168.117 64.1081 167.857 63.8524C167.601 63.5922 167.398 63.2902 167.248 62.9463C167.098 62.598 167.023 62.2276 167.023 61.8352Z" fill="#A30000"/>
<path d="M178.491 66.7425C178.561 66.7645 178.632 66.78 178.703 66.7888C178.773 66.7932 178.844 66.7954 178.914 66.7954C179.091 66.7954 179.261 66.7712 179.424 66.7227C179.587 66.6742 179.739 66.6058 179.88 66.5176C180.026 66.425 180.154 66.3148 180.264 66.187C180.379 66.0547 180.472 65.9092 180.542 65.7505L181.866 67.0798C181.698 67.3179 181.504 67.5317 181.283 67.7213C181.067 67.9109 180.831 68.0718 180.575 68.2041C180.324 68.3364 180.057 68.4356 179.775 68.5017C179.497 68.5723 179.21 68.6075 178.914 68.6075C178.416 68.6075 177.946 68.5149 177.505 68.3298C177.068 68.1446 176.684 67.8866 176.353 67.556C176.027 67.2253 175.769 66.8329 175.579 66.3788C175.39 65.9202 175.295 65.4176 175.295 64.8709C175.295 64.3109 175.39 63.7995 175.579 63.3365C175.769 62.8736 176.027 62.479 176.353 62.1527C176.684 61.8264 177.068 61.5729 177.505 61.3921C177.946 61.2114 178.416 61.121 178.914 61.121C179.21 61.121 179.499 61.1562 179.781 61.2268C180.063 61.2973 180.33 61.3987 180.582 61.531C180.838 61.6633 181.076 61.8264 181.296 62.0204C181.517 62.21 181.711 62.4238 181.879 62.6619L178.491 66.7425ZM179.417 63.0191C179.333 62.9882 179.25 62.9684 179.166 62.9595C179.086 62.9507 179.003 62.9463 178.914 62.9463C178.667 62.9463 178.433 62.9926 178.213 63.0852C177.997 63.1734 177.807 63.3012 177.644 63.4688C177.485 63.6363 177.359 63.8391 177.267 64.0772C177.174 64.3109 177.128 64.5755 177.128 64.8709C177.128 64.937 177.13 65.012 177.134 65.0957C177.143 65.1795 177.154 65.2655 177.167 65.3537C177.185 65.4374 177.205 65.519 177.227 65.5984C177.249 65.6777 177.278 65.7483 177.313 65.81L179.417 63.0191Z" fill="#A30000"/>
<path d="M184.598 68.4753H182.792V61.3921H183.229L183.824 62.2321C184.115 61.9675 184.446 61.7647 184.817 61.6236C185.187 61.4781 185.571 61.4054 185.968 61.4054H187.563V63.2042H185.968C185.778 63.2042 185.6 63.2395 185.432 63.3101C185.265 63.3806 185.119 63.4776 184.995 63.6011C184.872 63.7245 184.775 63.87 184.704 64.0376C184.634 64.2051 184.598 64.3837 184.598 64.5732V68.4753Z" fill="#A30000"/>
<path d="M190.415 68.4753L187.715 61.3921H189.773L191.321 65.81L192.863 61.3921H194.928L192.228 68.4753H190.415Z" fill="#A30000"/>
<path d="M197.747 59.4676C197.747 59.6351 197.714 59.7917 197.647 59.9372C197.586 60.0827 197.5 60.2105 197.389 60.3207C197.279 60.4266 197.149 60.5125 196.999 60.5787C196.853 60.6404 196.697 60.6713 196.529 60.6713C196.361 60.6713 196.203 60.6404 196.053 60.5787C195.907 60.5125 195.779 60.4266 195.669 60.3207C195.563 60.2105 195.477 60.0827 195.411 59.9372C195.349 59.7917 195.318 59.6351 195.318 59.4676C195.318 59.3045 195.349 59.1501 195.411 59.0046C195.477 58.8547 195.563 58.7269 195.669 58.6211C195.779 58.5108 195.907 58.4249 196.053 58.3631C196.203 58.297 196.361 58.2639 196.529 58.2639C196.697 58.2639 196.853 58.297 196.999 58.3631C197.149 58.4249 197.279 58.5108 197.389 58.6211C197.5 58.7269 197.586 58.8547 197.647 59.0046C197.714 59.1501 197.747 59.3045 197.747 59.4676ZM197.436 68.4753H195.616V61.3921H197.436V68.4753Z" fill="#A30000"/>
<path d="M205.012 62.8008L203.689 64.1301C203.623 63.945 203.532 63.7796 203.418 63.6341C203.303 63.4842 203.173 63.3586 203.027 63.2572C202.886 63.1558 202.732 63.0786 202.564 63.0257C202.396 62.9728 202.224 62.9463 202.048 62.9463C201.801 62.9463 201.567 62.997 201.346 63.0984C201.13 63.1998 200.941 63.3431 200.777 63.5283C200.619 63.7091 200.493 63.9251 200.4 64.1764C200.308 64.4278 200.261 64.7055 200.261 65.0098C200.261 65.2567 200.308 65.4881 200.4 65.7042C200.493 65.9202 200.619 66.1098 200.777 66.2729C200.941 66.4361 201.13 66.5639 201.346 66.6565C201.567 66.7491 201.801 66.7954 202.048 66.7954C202.224 66.7954 202.394 66.7712 202.557 66.7227C202.721 66.6742 202.873 66.6058 203.014 66.5176C203.16 66.425 203.287 66.3148 203.398 66.187C203.512 66.0547 203.605 65.9092 203.676 65.7505L204.999 67.0798C204.831 67.3179 204.637 67.5317 204.417 67.7213C204.201 67.9109 203.965 68.0718 203.709 68.2041C203.457 68.3364 203.19 68.4356 202.908 68.5017C202.63 68.5723 202.343 68.6075 202.048 68.6075C201.549 68.6075 201.08 68.5149 200.638 68.3298C200.202 68.1402 199.818 67.8822 199.487 67.556C199.161 67.2297 198.902 66.8483 198.713 66.4118C198.523 65.9753 198.428 65.508 198.428 65.0098C198.428 64.4674 198.523 63.9604 198.713 63.4886C198.902 63.0169 199.161 62.6068 199.487 62.2585C199.818 61.9058 200.202 61.628 200.638 61.4252C201.08 61.2224 201.549 61.121 202.048 61.121C202.343 61.121 202.632 61.1585 202.915 61.2334C203.201 61.3084 203.473 61.4186 203.729 61.5641C203.989 61.7052 204.227 61.8793 204.443 62.0866C204.664 62.2938 204.853 62.5319 205.012 62.8008Z" fill="#A30000"/>
<path d="M208.612 66.7425C208.683 66.7645 208.753 66.78 208.824 66.7888C208.894 66.7932 208.965 66.7954 209.036 66.7954C209.212 66.7954 209.382 66.7712 209.545 66.7227C209.708 66.6742 209.86 66.6058 210.002 66.5176C210.147 66.425 210.275 66.3148 210.385 66.187C210.5 66.0547 210.593 65.9092 210.663 65.7505L211.987 67.0798C211.819 67.3179 211.625 67.5317 211.404 67.7213C211.188 67.9109 210.952 68.0718 210.696 68.2041C210.445 68.3364 210.178 68.4356 209.896 68.5017C209.618 68.5723 209.331 68.6075 209.036 68.6075C208.537 68.6075 208.067 68.5149 207.626 68.3298C207.189 68.1446 206.806 67.8866 206.475 67.556C206.148 67.2253 205.89 66.8329 205.7 66.3788C205.511 65.9202 205.416 65.4176 205.416 64.8709C205.416 64.3109 205.511 63.7995 205.7 63.3365C205.89 62.8736 206.148 62.479 206.475 62.1527C206.806 61.8264 207.189 61.5729 207.626 61.3921C208.067 61.2114 208.537 61.121 209.036 61.121C209.331 61.121 209.62 61.1562 209.902 61.2268C210.185 61.2973 210.452 61.3987 210.703 61.531C210.959 61.6633 211.197 61.8264 211.418 62.0204C211.638 62.21 211.832 62.4238 212 62.6619L208.612 66.7425ZM209.538 63.0191C209.455 62.9882 209.371 62.9684 209.287 62.9595C209.208 62.9507 209.124 62.9463 209.036 62.9463C208.788 62.9463 208.555 62.9926 208.334 63.0852C208.118 63.1734 207.928 63.3012 207.765 63.4688C207.606 63.6363 207.48 63.8391 207.388 64.0772C207.295 64.3109 207.249 64.5755 207.249 64.8709C207.249 64.937 207.251 65.012 207.256 65.0957C207.264 65.1795 207.275 65.2655 207.289 65.3537C207.306 65.4374 207.326 65.519 207.348 65.5984C207.37 65.6777 207.399 65.7483 207.434 65.81L209.538 63.0191Z" fill="#A30000"/>
</svg>
